<svg width="14" height="14" viewBox="0 0 14 14" fill="none" xmlns="http://www.w3.org/2000/svg">
<path d="M4.667 1.75C4.667 1.336 5.003 1 5.417 1H8.583C8.997 1 9.333 1.336 9.333 1.75V2.333H12.25C12.457 2.333 12.625 2.501 12.625 2.708C12.625 2.915 12.457 3.083 12.25 3.083H11.535L10.973 12.066C10.924 12.85 10.274 13.458 9.489 13.458H4.511C3.726 13.458 3.076 12.85 3.027 12.066L2.465 3.083H1.75C1.543 3.083 1.375 2.915 1.375 2.708C1.375 2.501 1.543 2.333 1.75 2.333H4.667V1.75ZM5.417 2.333H8.583V1.75H5.417V2.333ZM3.217 3.083L3.775 12.019C3.799 12.407 4.122 12.708 4.511 12.708H9.489C9.878 12.708 10.201 12.407 10.225 12.019L10.783 3.083H3.217ZM5.542 4.667C5.749 4.667 5.917 4.835 5.917 5.042V10.75C5.917 10.957 5.749 11.125 5.542 11.125C5.335 11.125 5.167 10.957 5.167 10.75V5.042C5.167 4.835 5.335 4.667 5.542 4.667ZM8.458 4.667C8.665 4.667 8.833 4.835 8.833 5.042V10.75C8.833 10.957 8.665 11.125 8.458 11.125C8.251 11.125 8.083 10.957 8.083 10.75V5.042C8.083 4.835 8.251 4.667 8.458 4.667Z" fill="white"/>
</svg>
